<svg width="38" height="39" viewBox="0 0 38 39" fill="none" xmlns="http://www.w3.org/2000/svg">
<g id="Button Add">
<circle id="Ellipse 6" cx="18.9576" cy="19.5432" r="18.5322" fill="#5440A9"/>
<circle id="Ellipse 5" cx="18.9576" cy="18.2999" r="17.5761" fill="white"/>
<g id="Vector">
<path d="M21.1421 13.4468C21.0624 10.6969 19.6486 9.45329 16.7978 9.45329C13.947 9.45329 12.4139 10.9163 12.4139 13.7671C12.4139 17.4727 15.1156 17.2277 15.1156 19.4667C15.1156 22.6955 9.75873 21.2773 9.75873 27.3637C9.75873 27.7338 10.0587 28.0338 10.4288 28.0338H18.6075C19.5199 28.0338 20.0399 26.8155 19.6103 26.0106C19.0445 24.9509 18.1717 22.0763 18.7414 19.6731C19.5658 16.1952 21.2334 16.593 21.1421 13.4468Z" fill="#7C51FF"/>
<path fill-rule="evenodd" clip-rule="evenodd" d="M25.9744 28.4479C29.4503 28.4479 32.2679 25.6303 32.2679 22.1545C32.2679 18.6787 29.4503 15.861 25.9744 15.861C22.4986 15.861 19.681 18.6787 19.681 22.1545C19.681 25.6303 22.4986 28.4479 25.9744 28.4479ZM24.8245 17.1718V20.7613H21.1188V23.0613H24.8245V26.7119H27.1245V23.0613H30.8301V20.7613H27.1245V17.1718H24.8245Z" fill="#7C51FF"/>
</g>
</g>
</svg>
