<svg width="38" height="38" viewBox="0 0 38 38" fill="none" xmlns="http://www.w3.org/2000/svg">
<circle cx="19.4677" cy="18.7596" r="17.5761" fill="#1B1138"/>
<path d="M21.6522 13.9065C21.5725 11.1566 20.1587 9.91296 17.3079 9.91296C14.457 9.91296 12.924 11.3759 12.924 14.2268C12.924 17.9324 15.6257 17.6874 15.6257 19.9264C15.6257 23.1552 10.2688 21.737 10.2688 27.8234C10.2688 28.1935 10.5688 28.4935 10.9389 28.4935H19.1175C20.0299 28.4935 20.55 27.2752 20.1203 26.4703C19.5546 25.4105 18.6818 22.536 19.2515 20.1328C20.0759 16.6549 21.7434 17.0527 21.6522 13.9065Z" fill="#ADADAD"/>
<path fill-rule="evenodd" clip-rule="evenodd" d="M26.4845 28.9076C29.9603 28.9076 32.778 26.09 32.778 22.6142C32.778 19.1383 29.9603 16.3207 26.4845 16.3207C23.0087 16.3207 20.191 19.1383 20.191 22.6142C20.191 26.09 23.0087 28.9076 26.4845 28.9076ZM25.3346 17.6315V21.221H21.6289V23.521H25.3346V27.1716H27.6346V23.521H31.3402V21.221H27.6346V17.6315H25.3346Z" fill="#ADADAD"/>
</svg>
