<svg width="453" height="58" viewBox="0 0 453 58" fill="none" xmlns="http://www.w3.org/2000/svg">
<path fill-rule="evenodd" clip-rule="evenodd" d="M34.8664 58H44.0816C43.9697 57.8281 43.849 57.6638 43.7203 57.5076H44.315C44.3229 57.6714 44.3383 57.8357 44.3613 58H55.2588C55.2815 57.8372 55.2971 57.6729 55.3051 57.5076H57.1825C57.4418 57.6981 57.7185 57.8629 58.0084 58H62.2858C62.581 57.8607 62.857 57.6953 63.1122 57.5076H71.741C71.5557 57.6588 71.3842 57.8236 71.2273 58H77.9482C77.7891 57.8215 77.6167 57.657 77.4333 57.5076H81.1833C81.1955 57.6715 81.2186 57.836 81.2531 58H88.5953C88.6292 57.8382 88.6526 57.6738 88.665 57.5076H118.976C118.979 57.5178 118.982 57.5281 118.985 57.5383C118.987 57.5443 118.989 57.5503 118.99 57.5562C118.995 57.5702 119 57.5841 119.005 57.598C119.063 57.7579 119.158 57.8938 119.276 58H120.613C120.76 57.8681 120.863 57.6959 120.912 57.5076H452.122V56.0076H97.2927C97.9822 55.4556 98.4149 54.6444 98.4973 53.7742H452.122V52.2742H98.2829C97.6384 50.643 95.8076 49.8124 94.1492 50.416C93.2405 50.7467 92.5689 51.4407 92.2387 52.2742H74.4872C74.9122 51.6075 75.1687 50.8392 75.2235 50.0409H78.9325C79.9731 50.5218 81.1967 50.6076 82.359 50.1845C82.4783 50.1411 82.5947 50.0931 82.708 50.0409H103.119C103.143 50.2156 103.185 50.3904 103.248 50.5628C103.72 51.8602 105.155 52.5292 106.452 52.057C107.356 51.728 107.955 50.9321 108.076 50.0409H452.122V48.5409H107.809C107.236 47.4514 105.931 46.9257 104.742 47.3585C104.135 47.5795 103.666 48.0112 103.386 48.5409H84.5038C84.963 47.8853 85.2436 47.1134 85.3073 46.3076H113.967C113.987 46.4154 114.016 46.5231 114.055 46.6296C114.432 47.6675 115.58 48.2027 116.618 47.8249C117.309 47.5736 117.777 46.9814 117.901 46.3076H452.122V44.8076H117.579C117.075 44.0768 116.123 43.7482 115.25 44.0661C114.845 44.2135 114.517 44.4781 114.289 44.8076H93.8466C94.4337 44.2025 94.8019 43.4129 94.8881 42.5742H125.35C125.556 43.0609 126.11 43.3059 126.613 43.123C126.884 43.0243 127.086 42.8204 127.191 42.5742H452.122V41.0742H103.386C104.127 40.5441 104.605 39.7277 104.718 38.8409H452.122V37.3409H104.555L104.547 37.3199C103.933 35.6332 102.068 34.7635 100.382 35.3774C99.4349 35.722 98.7455 36.4608 98.4315 37.3409H80.6505C81.0973 36.6792 81.3743 35.9103 81.4475 35.1076H85.4114C86.3959 35.4935 87.5196 35.536 88.5914 35.146L88.6174 35.1364C88.6428 35.127 88.668 35.1174 88.6931 35.1076H109.368C109.393 35.2471 109.43 35.3865 109.481 35.5243C109.953 36.8217 111.387 37.4907 112.685 37.0184C113.553 36.7025 114.14 35.9558 114.291 35.1076H452.122V33.6076H114.093C113.551 32.4471 112.201 31.8735 110.975 32.32C110.328 32.5554 109.837 33.03 109.566 33.6076H90.6602C91.1436 32.9581 91.4467 32.1853 91.5301 31.3742H120.222C120.239 31.4468 120.261 31.5192 120.287 31.591C120.665 32.629 121.813 33.1642 122.85 32.7864C123.505 32.5482 123.959 32.004 124.111 31.3742H452.122V29.8742H123.88C123.396 29.0705 122.397 28.6948 121.482 29.0276C121.035 29.1904 120.681 29.496 120.454 29.8742H99.9727C100.596 29.2814 100.997 28.4895 101.108 27.6409H131.635C131.872 28.0567 132.38 28.2536 132.845 28.0844C133.077 28.0002 133.258 27.8393 133.371 27.6409H452.122V26.1409H109.462C110.261 25.6369 110.789 24.8141 110.935 23.9076H452.122V22.4076H110.823C110.809 22.3654 110.795 22.3233 110.78 22.2813C110.355 21.1138 109.33 20.3377 108.18 20.1742H115.622C115.645 20.2786 115.675 20.3826 115.713 20.4857C116.185 21.7832 117.62 22.4521 118.917 21.9799C119.749 21.6771 120.323 20.9786 120.503 20.1742H452.122V18.6742H120.372C119.864 17.4437 118.47 16.8217 117.207 17.2814C116.521 17.531 116.011 18.0494 115.752 18.6742H96.8119C97.3204 18.0313 97.6469 17.2576 97.7504 16.4409H126.482C126.494 16.4782 126.506 16.5154 126.519 16.5525C126.897 17.5904 128.045 18.1256 129.083 17.7478C129.701 17.523 130.14 17.0256 130.315 16.4409H452.122V14.9409H130.171C129.714 14.0653 128.668 13.6421 127.715 13.9891C127.227 14.1667 126.85 14.5144 126.627 14.9409H106.09C106.752 14.3619 107.187 13.5672 107.325 12.7076H137.936C138.194 13.0501 138.654 13.2001 139.077 13.0459C139.266 12.9771 139.422 12.8572 139.535 12.7076H452.122V11.2076H139.174C138.939 11.0927 138.659 11.0699 138.393 11.1665C138.36 11.1787 138.328 11.1924 138.297 11.2076H115.515C116.382 10.7358 116.967 9.90465 117.149 8.97424H452.122V7.47424H117.087C117.065 7.39681 117.04 7.31961 117.012 7.24279C116.647 6.24002 115.84 5.52604 114.891 5.2409H121.88C121.899 5.30994 121.92 5.37875 121.945 5.44719C122.418 6.74463 123.852 7.41359 125.15 6.94136C125.945 6.65184 126.504 6.00054 126.709 5.2409H452.122V3.7409H126.645L126.644 3.73708C126.172 2.43964 124.737 1.77067 123.44 2.2429C122.716 2.50635 122.187 3.06932 121.944 3.7409H102.958C103.493 3.10507 103.844 2.33027 103.968 1.50757H132.749L132.752 1.51395C133.13 2.55191 134.277 3.08708 135.315 2.7093C135.895 2.4981 136.319 2.0463 136.513 1.50757H452.122V0.00756842H136.454L136.451 0H132.812L132.808 0.00756842H112.196L112.206 0H107.502L107.512 0.00756842H103.94L103.939 0H95.0955L95.0941 0.00756842H90.3859L90.3568 0H88.0045L87.9754 0.00756842H78.7995L78.805 0H70.6732L70.6786 0.00756842H69.839L69.8378 0H58.9681L58.9669 0.00756842H57.0738L57.0622 0H51.0688L51.0572 0.00756842H44.2936L44.2983 0H34.9516L34.9563 0.00756842H34.7233L34.7221 0H23.8556L23.8544 0.00756842H21.9438L21.932 0H15.9708L15.959 0.00756842H9.18593L9.1906 0H0V1.50757H1.20824C2.64484 2.58433 4.57952 2.93729 6.39247 2.27743C6.91571 2.08699 7.39249 1.8254 7.81586 1.50757H14.4193C13.9614 2.17492 13.6536 2.93838 13.5225 3.7409H11.562C10.1711 2.85991 8.40133 2.61044 6.73449 3.21712C6.35328 3.35587 5.99673 3.53239 5.66753 3.7409H0V5.2409H4.10263C3.63929 5.90709 3.32637 6.67069 3.19063 7.47424H1.17928C0.809327 7.24499 0.413267 7.06006 0 6.92361V17.3715C0.0534593 17.3539 0.106829 17.3354 0.160094 17.316C0.739985 17.1049 1.26281 16.8064 1.71911 16.4409H8.26091C7.78289 17.1039 7.45624 17.8679 7.30832 18.6742H5.15661C3.7937 17.8794 2.1006 17.6739 0.502116 18.2557C0.329611 18.3184 0.162156 18.389 0 18.4667V28.3808C1.28818 29 2.81515 29.1197 4.26433 28.5923C4.88408 28.3667 5.43864 28.0413 5.91648 27.6409H12.4212C11.9281 28.3006 11.5874 29.065 11.4271 29.8742H9.12567C7.78696 29.1431 6.15239 28.9693 4.60636 29.532C4.34129 29.6284 4.08814 29.7432 3.84782 29.8742H0V31.3742H2.10629C1.60739 32.0327 1.26135 32.7972 1.0963 33.6076H0V42.5742H6.26941C5.75487 43.2292 5.39436 43.9942 5.21665 44.8076H2.69086C1.86641 44.4005 0.941371 44.1993 0 44.2433V55.2343C0.706134 55.2674 1.43039 55.164 2.13619 54.9071C2.84711 54.6484 3.47226 54.2583 3.99421 53.7742H10.4347C9.90408 54.4255 9.52874 55.191 9.33814 56.0076H6.63406C5.36914 55.4329 3.88693 55.3341 2.47822 55.8468C2.34369 55.8958 2.21223 55.9494 2.08396 56.0076H0V57.5076H0.121787C0.0802542 57.5578 0.039654 57.6088 0 57.6604V58H8.96071C8.84824 57.828 8.72694 57.6638 8.59767 57.5076H9.20038C9.20802 57.6714 9.22308 57.8357 9.24577 58H20.1461C20.1686 57.8372 20.1838 57.6729 20.1915 57.5076H21.2739C21.4656 57.6866 21.6691 57.851 21.8828 58H28.1839C28.3996 57.8495 28.6025 57.6847 28.7916 57.5076H35.2274C35.0977 57.6652 34.9773 57.8297 34.8664 58ZM24.1205 2.7421C23.9579 2.29527 23.7434 1.88231 23.4863 1.50757H23.8257C23.875 1.92054 23.9721 2.3344 24.1205 2.7421ZM24.1205 2.7421C24.2498 3.09715 24.4118 3.43081 24.6018 3.7409H24.382C24.3273 3.40643 24.2407 3.07225 24.1205 2.7421ZM33.9748 3.7409C34.3898 3.06471 34.6572 2.30228 34.7519 1.50757H36.3362C37.7714 2.57623 39.6995 2.92481 41.5066 2.26707C42.0241 2.0787 42.4962 1.82073 42.9161 1.50757H49.5263C49.0704 2.17533 48.7644 2.93874 48.6349 3.7409H46.6924C45.299 2.85151 43.522 2.59771 41.8486 3.20676C41.4611 3.34781 41.0991 3.52787 40.7654 3.7409H33.9748ZM59.2347 2.73174C59.0735 2.28902 58.8615 1.87956 58.6075 1.50757H58.9411C58.9907 1.9171 59.0875 2.32745 59.2347 2.73174ZM59.2347 2.73174C59.3653 3.09075 59.5295 3.42788 59.7223 3.7409H59.4978C59.4432 3.40297 59.3561 3.06529 59.2347 2.73174ZM69.0826 3.7409C69.4994 3.06508 69.7685 2.30261 69.8648 1.50757H72.4005C73.6063 2.14533 75.0669 2.29015 76.4497 1.78687C76.6689 1.70707 76.8792 1.61353 77.0799 1.50757H85.576C85.0301 2.1445 84.6612 2.91694 84.5085 3.7409H80.7466C79.634 3.28267 78.3535 3.22227 77.1337 3.66626C77.0686 3.68994 77.0044 3.71483 76.9409 3.7409H69.0826ZM93.644 2.9779C93.4423 2.42376 93.1482 1.92996 92.7855 1.50757H95.0659C95.11 1.79945 95.1836 2.09129 95.2885 2.37936C95.4745 2.89066 95.7437 3.34774 96.0751 3.7409H93.8524C93.805 3.48533 93.7358 3.23025 93.644 2.9779ZM93.8883 5.2409H98.5738C99.1826 5.37202 99.8243 5.37801 100.46 5.2409H113.025C112.966 5.2589 112.906 5.2787 112.846 5.30036C111.825 5.67207 111.103 6.50247 110.829 7.47424H92.9648C93.4575 6.82367 93.7775 6.05322 93.8883 5.2409ZM105.668 8.97424H110.767C110.799 9.13894 110.845 9.30326 110.904 9.46593C111.186 10.2401 111.731 10.8421 112.402 11.2076H107.26C107.228 11.0825 107.19 10.9578 107.145 10.834C106.856 10.0395 106.326 9.40219 105.668 8.97424ZM101.573 8.97424C100.768 9.4978 100.209 10.3044 99.9828 11.2076H82.9575C83.4143 10.5453 83.7082 9.7783 83.8076 8.97424H87.3229C88.3914 9.42852 89.6279 9.49447 90.805 9.06604C90.884 9.03729 90.9618 9.00667 91.0383 8.97424H101.573ZM80.5539 13.0632C79.1176 13.586 77.5973 13.4094 76.3658 12.7076H73.9777C73.893 13.5002 73.6365 14.2624 73.233 14.9409H82.2551C82.7216 14.8716 83.188 14.8737 83.6409 14.9409H88.8829C89.0628 14.1004 89.4811 13.3222 90.0905 12.7076H81.3233C81.0813 12.8454 80.8244 12.9647 80.5539 13.0632ZM74.1454 10.0748C74.2947 10.4852 74.4922 10.8641 74.7292 11.2076H73.9308C73.8758 10.8855 73.7912 10.5638 73.6755 10.2458C73.5075 9.78421 73.2841 9.35876 73.0156 8.97424H73.88C73.9255 9.34245 74.0131 9.71133 74.1454 10.0748ZM63.9999 8.97424C63.535 9.64009 63.2206 10.4037 63.0836 11.2076H61.0576C59.6759 10.3567 57.9327 10.1228 56.2895 10.7209C55.9311 10.8513 55.5944 11.0151 55.2819 11.2076H48.4445C48.8512 10.5297 49.1107 9.76748 49.1982 8.97424H50.7143C52.1557 10.0799 54.1139 10.4485 55.9474 9.78116C56.4909 9.58337 56.9842 9.30883 57.4196 8.97424H63.9999ZM47.1203 12.7076H53.6836C53.2132 13.3722 52.8936 14.136 52.752 14.9409H50.6736C49.2995 14.1137 47.5773 13.8918 45.9529 14.4831C45.6125 14.6069 45.2918 14.7609 44.9927 14.9409H38.1251C38.5267 14.2621 38.7815 13.4999 38.8647 12.7076H40.3404C41.7852 13.8356 43.7614 14.2165 45.6108 13.5434C46.1698 13.3399 46.6758 13.0553 47.1203 12.7076ZM52.3014 16.4409H52.697C52.7421 16.8853 52.8425 17.3314 53.0023 17.7703C52.8258 17.2854 52.5882 16.8404 52.3014 16.4409ZM53.0023 17.7703C53.1184 18.0894 53.261 18.3913 53.4268 18.6742H53.2474C53.1923 18.3715 53.1111 18.0692 53.0023 17.7703ZM63.6441 16.4409C63.5637 17.2327 63.312 17.9948 62.9135 18.6742H70.9877C72.0806 18.2985 73.2177 18.3239 74.2357 18.6742H78.2968C78.4702 17.8441 78.8637 17.0706 79.4365 16.4409H71.9213C71.4712 16.797 70.9572 17.0882 70.3883 17.2952C68.5288 17.9721 66.5411 17.5833 65.0943 16.4409H63.6441ZM60.0517 21.0575C58.1765 21.74 56.1712 21.339 54.7214 20.1742H53.3103C53.2343 20.9652 52.9872 21.7271 52.5937 22.4076H59.5139C59.7899 22.2479 60.0836 22.11 60.3937 21.9972C61.9867 21.4174 63.6736 21.6195 65.0341 22.4076H67.7109C67.8786 21.5859 68.2511 20.8161 68.7928 20.1742H61.6209C61.1622 20.5435 60.6359 20.8448 60.0517 21.0575ZM43.3676 16.4409C42.8916 17.1044 42.5668 17.8683 42.4205 18.6742H40.2884C38.9225 17.8709 37.2216 17.661 35.6162 18.2453C35.2942 18.3625 34.9898 18.5066 34.7047 18.6742H27.8054C28.2021 17.9944 28.4522 17.2324 28.531 16.4409H29.9671C31.415 17.5913 33.409 17.9845 35.2742 17.3056C35.8486 17.0965 36.367 16.8017 36.8203 16.4409H43.3676ZM42.3575 20.1742H41.9439C42.2401 20.5812 42.4849 21.0359 42.6656 21.5325C42.771 21.8219 42.8505 22.1145 42.9054 22.4076H43.0733C42.9148 22.133 42.7779 21.8408 42.6656 21.5325C42.5024 21.0841 42.4012 20.6282 42.3575 20.1742ZM26.5196 20.1742H33.0518C32.5702 20.8365 32.2402 21.6006 32.0892 22.4076H29.9021C28.5447 21.6281 26.8656 21.4303 25.2796 22.0075C24.9763 22.1179 24.6885 22.2522 24.4178 22.4076H17.4855C17.8773 21.7268 18.1227 20.9649 18.1972 20.1742H19.5944C21.0452 21.3469 23.0569 21.7523 24.9376 21.0678C25.5272 20.8532 26.0579 20.5482 26.5196 20.1742ZM31.5861 23.9076H32.0182C32.0603 24.3711 32.1623 24.8368 32.329 25.2947C32.144 24.7864 31.8918 24.3218 31.5861 23.9076ZM32.329 25.2947C32.4373 25.5922 32.5686 25.8747 32.7201 26.1409H32.5633C32.5086 25.8575 32.4309 25.5746 32.329 25.2947ZM42.9764 23.9076C42.9046 24.6977 42.6623 25.4595 42.2736 26.1409H49.2278C49.4891 25.9934 49.7659 25.8654 50.0571 25.7594C51.6304 25.1867 53.2954 25.3769 54.647 26.1409H56.8702C57.0241 25.3332 57.3576 24.569 57.8428 23.9076H51.3198C50.8529 24.29 50.3144 24.6015 49.7151 24.8197C47.8245 25.5078 45.8015 25.0945 44.3491 23.9076H42.9764ZM39.3784 28.5819C37.4726 29.2756 35.4323 28.85 33.9774 27.6409H32.6423C32.5749 28.4302 32.3371 29.1919 31.9534 29.8742H38.943C39.189 29.7389 39.4484 29.6206 39.7205 29.5216C41.2738 28.9563 42.9164 29.1344 44.2586 29.8742H46.5392C46.6978 29.0654 47.0365 28.3011 47.5275 27.6409H41.0182C40.5432 28.0366 39.9928 28.3583 39.3784 28.5819ZM22.7363 23.9076C22.249 24.5686 21.9137 25.3328 21.7581 26.1409H19.5145C18.1662 25.3855 16.5092 25.1997 14.943 25.7697C14.6586 25.8732 14.3879 25.9978 14.1321 26.1409H7.16542C7.55231 25.4592 7.79302 24.6974 7.86324 23.9076H9.22234C10.6757 25.1025 12.7049 25.5202 14.601 24.8301C15.2057 24.6099 15.7484 24.2948 16.2183 23.9076H22.7363ZM21.679 27.6409H21.228C21.5434 28.0624 21.8031 28.5367 21.9924 29.0569C22.0908 29.3274 22.1667 29.6005 22.221 29.8742H22.3672C22.2225 29.6165 22.0968 29.3437 21.9924 29.0569C21.8223 28.5895 21.7195 28.1139 21.679 27.6409ZM22.3081 31.3742H23.6063C25.0633 32.6054 27.1209 33.0433 29.0418 32.3441C29.6711 32.1151 30.2332 31.7832 30.716 31.3742H37.2126C36.7158 32.0331 36.3717 32.7977 36.2083 33.6076H33.8689C32.5367 32.8921 30.9167 32.7259 29.3838 33.2838C29.1313 33.3757 28.8897 33.4842 28.6596 33.6076H21.6329C22.0118 32.9243 22.2449 32.1627 22.3081 31.3742ZM46.7699 32.8088C46.5778 32.281 46.3132 31.8004 45.9916 31.3742H46.455C46.4943 31.8534 46.5975 32.3352 46.7699 32.8088ZM46.7699 32.8088C46.8718 33.0887 46.994 33.3553 47.1343 33.6076H46.9948C46.9408 33.34 46.8661 33.0731 46.7699 32.8088ZM56.7412 33.6076C57.1219 32.9246 57.3567 32.1629 57.4214 31.3742H58.7327C60.189 32.5975 62.2404 33.031 64.1559 32.3338C64.7799 32.1067 65.3378 31.7784 65.8178 31.3742H73.3028C72.7015 31.996 72.2823 32.7708 72.0877 33.6076H67.6577C66.8411 33.3908 65.9628 33.3787 65.101 33.6076H56.7412ZM82.6744 29.8742H67.0617C67.4472 29.1922 67.6866 28.4305 67.7556 27.6409H69.9573C71.218 28.4293 72.816 28.6497 74.3215 28.1017C74.6587 27.979 74.9746 27.8238 75.2671 27.6409H83.966C83.3244 28.2458 82.8774 29.0257 82.6744 29.8742ZM56.3499 27.6409H56.794C56.8351 28.1105 56.9376 28.5825 57.1065 29.0466C56.9187 28.5306 56.6618 28.0598 56.3499 27.6409ZM57.1065 29.0466C57.2123 29.3372 57.34 29.6135 57.4871 29.8742H57.3372C57.2827 29.597 57.2062 29.3204 57.1065 29.0466ZM68.4262 26.1409H67.6794C67.6246 25.854 67.5463 25.5677 67.4431 25.2844C67.2597 24.7802 67.0101 24.3192 66.7079 23.9076H67.6357C67.6769 24.3107 67.7681 24.7152 67.913 25.1133C68.0473 25.4823 68.2204 25.8258 68.4262 26.1409ZM76.7957 26.1409C77.2314 25.4739 77.5054 24.7075 77.5871 23.9076H80.8602C81.9789 24.4548 83.31 24.5642 84.5727 24.1046C84.7325 24.0464 84.8873 23.9805 85.0368 23.9076H95.5126C94.6482 24.4056 94.0385 25.2181 93.7784 26.1409H76.7957ZM104.628 22.4076H86.8098C87.2791 21.7513 87.5773 20.9816 87.6691 20.1742H91.9425C92.7902 20.4398 93.7224 20.4573 94.6263 20.1742H107.271C107.051 20.2055 106.831 20.2599 106.614 20.3389C105.63 20.6971 104.924 21.4814 104.628 22.4076ZM78.4845 21.2656C78.3534 20.9052 78.2685 20.5393 78.227 20.1742H76.4307C76.8013 20.6125 77.1022 21.1224 77.3099 21.6932C77.396 21.9296 77.4631 22.1683 77.512 22.4076H79.0854C78.8397 22.0641 78.636 21.6819 78.4845 21.2656ZM89.7567 18.6742H87.5993C87.5532 18.4539 87.4909 18.2341 87.4116 18.0164C87.1929 17.4156 86.8656 16.8857 86.46 16.4409H88.8189C88.8604 16.7678 88.9386 17.0952 89.0561 17.4179C89.2258 17.8842 89.4646 18.3055 89.7567 18.6742ZM99.2642 23.9076H104.516C104.548 24.1075 104.6 24.3072 104.672 24.5045C104.928 25.2084 105.402 25.77 105.99 26.1409H100.999C100.974 26.0511 100.945 25.9616 100.913 25.8725C100.599 25.0101 100.002 24.3328 99.2642 23.9076ZM90.1384 27.6409H93.6697C93.7048 27.9075 93.7693 28.1745 93.8651 28.4377C94.0705 29.0021 94.3973 29.4872 94.8053 29.8742H91.4302C91.3904 29.7081 91.3407 29.5426 91.2809 29.3783C91.032 28.6944 90.6346 28.1076 90.1384 27.6409ZM80.1287 31.3742H82.5745C82.6117 31.736 82.6936 32.0991 82.8237 32.4564C82.9775 32.879 83.188 33.2645 83.4435 33.6076H81.3436C81.3005 33.4225 81.2459 33.238 81.1792 33.055C80.943 32.4061 80.5802 31.8399 80.1287 31.3742ZM70.1068 35.1076H71.9838C72.0203 35.5074 72.1084 35.9091 72.2522 36.3042C72.3884 36.6784 72.5667 37.0251 72.7799 37.3409H71.2569C71.2106 37.1369 71.151 36.9334 71.0775 36.7317C70.8529 36.1146 70.5195 35.5687 70.1068 35.1076ZM71.3643 38.8409H74.4252C75.5836 39.4779 77.0004 39.6308 78.3403 39.1431C78.5737 39.0582 78.7963 38.9568 79.0075 38.8409H89.476C88.5423 39.3075 87.8742 40.1275 87.5773 41.0742H70.6302C71.0454 40.4027 71.3001 39.6368 71.3643 38.8409ZM94.6804 40.9111C94.3392 39.9736 93.6631 39.2549 92.8363 38.8409H98.2684C98.2984 39.0758 98.3548 39.3111 98.4392 39.543C98.6722 40.1833 99.0856 40.7059 99.6011 41.0742H94.7356C94.7186 41.0197 94.7001 40.9653 94.6804 40.9111ZM83.7901 42.5742H87.425C87.456 42.8758 87.5243 43.1784 87.6327 43.4762C87.8199 43.9906 88.108 44.4391 88.4664 44.8076H85.1712C85.1366 44.6768 85.0957 44.5464 85.0485 44.4168C84.7806 43.6805 84.3404 43.0567 83.7901 42.5742ZM77.8492 42.5742C77.1732 43.1684 76.6956 43.9502 76.4685 44.8076H60.8872C61.2552 44.1222 61.4779 43.3608 61.5313 42.5742H63.5637C64.8476 43.4474 66.5186 43.7119 68.0892 43.1403C68.4892 42.9946 68.8594 42.8033 69.196 42.5742H77.8492ZM57.9236 47.3723C55.9541 48.0891 53.841 47.6107 52.3788 46.3076H51.1966C51.1474 47.0933 50.9293 47.8547 50.566 48.5409H59.3647C59.8913 48.4569 60.4185 48.4597 60.9285 48.5409H65.881C66.0977 47.6969 66.544 46.9207 67.1754 46.3076H59.7067C59.2002 46.7601 58.6008 47.1258 57.9236 47.3723ZM50.8741 44.0851C50.9658 44.337 51.0739 44.578 51.1969 44.8076H51.0831C51.0306 44.5656 50.9612 44.3243 50.8741 44.0851ZM50.5535 42.5742C50.5877 43.0785 50.6926 43.5864 50.8741 44.0851C50.6704 43.5255 50.3854 43.0191 50.0372 42.5742H50.5535ZM41.3754 42.5742C40.863 43.2297 40.5045 43.9946 40.3285 44.8076H37.8258C36.5225 44.1572 34.9649 44.0226 33.4881 44.5602C33.289 44.6326 33.0967 44.7153 32.9115 44.8076H25.7787C26.145 44.1219 26.366 43.3605 26.4179 42.5742H27.6222C29.0836 43.8634 31.186 44.3339 33.1461 43.6205C33.814 43.3773 34.4063 43.0183 34.9084 42.5742H41.3754ZM24.6042 46.3076H31.0615C30.5431 46.9616 30.179 47.7268 29.9982 48.5409H27.4304C26.1392 47.9155 24.6061 47.7929 23.1515 48.3224C22.9734 48.3872 22.8008 48.4602 22.6337 48.5409H15.4574C15.8189 47.8543 16.0354 47.093 16.0831 46.3076H17.2531C18.7157 47.6185 20.8348 48.1014 22.8094 47.3827C23.4918 47.1343 24.0952 46.7649 24.6042 46.3076ZM29.3181 50.0409H29.8766C29.9066 50.5641 30.0124 51.0918 30.2009 51.6096C29.9883 51.0256 29.6872 50.4995 29.3181 50.0409ZM30.2009 51.6096C30.2849 51.8404 30.3827 52.0621 30.4931 52.2742H30.397C30.3462 52.0516 30.281 51.8297 30.2009 51.6096ZM40.8617 50.0409C40.8167 50.8258 40.6031 51.5871 40.2446 52.2742H47.45C47.6049 52.2009 47.7646 52.134 47.9289 52.0742C49.3691 51.55 50.8861 51.665 52.1693 52.2742H55.2938C55.5017 51.4409 55.9219 50.6691 56.5161 50.0409H49.4022C48.889 50.5068 48.2785 50.8828 47.5869 51.1345C45.603 51.8566 43.4732 51.3658 42.01 50.0409H40.8617ZM37.2503 54.8968C35.252 55.6241 33.1058 55.1209 31.6417 53.7742H30.5267C30.4859 54.5584 30.2768 55.3196 29.9229 56.0076H37.1753C37.3108 55.9455 37.4498 55.8883 37.5923 55.8365C39.0095 55.3207 40.501 55.4237 41.7708 56.0076H44.4498C44.6387 55.1914 45.012 54.426 45.5404 53.7742H39.0971C38.5774 54.2535 37.9561 54.6399 37.2503 54.8968ZM20.748 50.0409C20.2235 50.6936 19.8538 51.4589 19.6681 52.2742H17.0332C15.7548 51.6741 14.2468 51.5634 12.8148 52.0846C12.6583 52.1416 12.5059 52.2049 12.3579 52.2742H5.13586C5.49274 51.5868 5.70468 50.8256 5.7482 50.0409H6.88446C8.34804 51.3736 10.4837 51.8689 12.4728 51.1449C13.1695 50.8913 13.7839 50.5116 14.2994 50.0409H20.748ZM19.5384 53.7742H18.958C19.3378 54.2396 19.6472 54.7755 19.8643 55.3718C19.9409 55.5824 20.0039 55.7946 20.0537 56.0076H20.1416C20.0373 55.8042 19.9445 55.5921 19.8643 55.3718C19.6723 54.8445 19.5661 54.3069 19.5384 53.7742ZM5.72534 48.5409H5.62367C5.57231 48.3121 5.50574 48.0839 5.4234 47.8577C5.50985 48.0952 5.61096 48.3232 5.72534 48.5409ZM5.4234 47.8577C5.2137 47.2816 4.91775 46.7618 4.55544 46.3076H5.10023C5.13161 46.8247 5.23717 47.346 5.4234 47.8577ZM55.8314 56.0076H55.1702C55.1201 55.7912 55.0563 55.5755 54.9784 55.3614C54.7629 54.7696 54.4565 54.2371 54.0806 53.7742H55.154C55.182 54.2466 55.2781 54.723 55.4482 55.1904C55.5532 55.4788 55.6819 55.7516 55.8314 56.0076ZM64.4611 56.0076C64.8565 55.3318 65.0923 54.5664 65.1393 53.7742H68.0111C69.201 54.4985 70.6971 54.6951 72.1079 54.1816C72.4094 54.0719 72.693 53.9348 72.957 53.7742H83.4731C82.4557 54.2002 81.7179 55.0304 81.3796 56.0076H64.4611ZM66.0198 51.3427C66.141 51.6758 66.2956 51.9871 66.4785 52.2742H64.9995C64.9573 52.1055 64.906 51.9373 64.8451 51.7702C64.6032 51.1056 64.2351 50.5234 63.7775 50.0409H65.7431C65.7729 50.4754 65.8634 50.913 66.0198 51.3427ZM88.448 55.9496C88.0758 54.927 87.3051 54.1647 86.3751 53.7742H92.0243C92.0498 54.044 92.1098 54.315 92.2068 54.5815C92.4185 55.1631 92.7789 55.6476 93.2295 56.0076H88.4686L88.4548 55.9683L88.448 55.9496ZM40.7401 48.5409H40.8449C40.7283 48.3201 40.6253 48.0886 40.5375 47.8473C40.3525 47.3391 40.2471 46.8213 40.215 46.3076H39.6778C40.0363 46.7593 40.3294 47.2756 40.5375 47.8473C40.6211 48.077 40.6884 48.3086 40.7401 48.5409ZM16.0772 44.8076H15.9667C15.9145 44.5691 15.8458 44.3312 15.76 44.0955C15.8503 44.3435 15.9566 44.5811 16.0772 44.8076ZM15.4387 42.5742C15.4722 43.0819 15.5773 43.5933 15.76 44.0955C15.5548 43.5315 15.2668 43.0215 14.9149 42.5742H15.4387ZM15.547 41.0742H13.0851C11.7744 40.4079 10.2013 40.2657 8.7106 40.8083C8.4983 40.8856 8.29365 40.9745 8.09711 41.0742H0.991248C1.36059 40.3891 1.58451 39.6277 1.63919 38.8409H2.86581C4.32628 40.116 6.41789 40.5786 8.36858 39.8686C9.02724 39.6289 9.61227 39.2764 10.1098 38.8409H16.5835C16.0749 39.4972 15.7199 40.262 15.547 41.0742ZM1.66196 37.3409H1.53599C1.48267 37.0865 1.41065 36.8328 1.31916 36.5814C1.41576 36.8468 1.53068 37.1003 1.66196 37.3409ZM1.31916 36.5814C1.12111 36.0373 0.846129 35.5434 0.51097 35.1076H1.00115C1.03794 35.5996 1.14208 36.0949 1.31916 36.5814ZM11.3122 37.3409C11.6863 36.6567 11.9148 35.8952 11.9737 35.1076H13.2358C14.6946 36.3607 16.7693 36.811 18.7052 36.1064C19.3492 35.872 19.9229 35.5298 20.4132 35.1076H26.8979C26.3952 35.7652 26.0457 36.5299 25.8776 37.3409H23.4778C22.156 36.6499 20.5593 36.4957 19.0472 37.0461C18.8146 37.1307 18.5912 37.2294 18.3776 37.3409H11.3122ZM11.6558 32.8192C11.7563 33.0952 11.8765 33.3584 12.0145 33.6076H11.8786C11.8247 33.3435 11.7507 33.0801 11.6558 32.8192ZM11.34 31.3742C11.3787 31.8568 11.4822 32.3422 11.6558 32.8192C11.4621 32.287 11.1948 31.803 10.8697 31.3742H11.34ZM36.4333 36.571C36.2368 36.0312 35.9646 35.5409 35.633 35.1076H36.1161C36.1535 35.5962 36.2574 36.0879 36.4333 36.571ZM36.4333 36.571C36.5313 36.8403 36.6481 37.0972 36.7817 37.3409H36.6523C36.5987 37.083 36.526 36.8258 36.4333 36.571ZM46.4206 37.3409C46.7964 36.6571 47.0266 35.8955 47.087 35.1076H48.362C49.8202 36.3529 51.8888 36.7987 53.8193 36.096C54.4581 35.8635 55.0276 35.525 55.5152 35.1076H62.6518C62.0845 35.7428 61.6887 36.5136 61.5011 37.3409H58.6116C57.286 36.6411 55.6809 36.4826 54.1613 37.0357C53.9216 37.123 53.6915 37.2252 53.4719 37.3409H46.4206ZM60.3963 38.8409H61.3938C61.4291 39.2787 61.5231 39.7191 61.6806 40.1519C61.8001 40.4801 61.9504 40.7883 62.127 41.0742H61.4259C61.3727 40.8226 61.3013 40.5716 61.2108 40.3229C61.0115 39.7754 60.7343 39.2787 60.3963 38.8409ZM51.6896 38.8409C51.1832 39.4977 50.8301 40.2624 50.659 41.0742H48.2195C46.9047 40.399 45.3231 40.2525 43.8247 40.7979C43.6051 40.8779 43.3936 40.9703 43.1909 41.0742H36.0998C36.4708 40.3895 36.6964 39.628 36.7526 38.8409H37.9918C39.4517 40.1082 41.5373 40.5663 43.4827 39.8582C44.1361 39.6204 44.7171 39.2716 45.2121 38.8409H51.6896ZM26.0966 40.3333C26.1908 40.5919 26.3023 40.8391 26.4294 41.0742H26.3096C26.2566 40.826 26.1859 40.5785 26.0966 40.3333ZM25.7773 38.8409C25.8128 39.3391 25.9173 39.8406 26.0966 40.3333C25.8958 39.7814 25.6158 39.2812 25.2741 38.8409H25.7773ZM77.1351 48.5409H75.0855C75.047 48.3911 75.0008 48.2418 74.9468 48.0935C74.6926 47.3949 74.2915 46.7922 73.791 46.3076H76.3326C76.3639 46.7041 76.4487 47.103 76.5913 47.495C76.7296 47.8749 76.9137 48.2248 77.1351 48.5409ZM7.95325 22.4076H7.78935C7.73453 22.1179 7.65564 21.8289 7.55154 21.5429C7.66234 21.8473 7.79722 22.136 7.95325 22.4076ZM7.24243 20.1742C7.28553 20.6316 7.38708 21.091 7.55154 21.5429C7.36926 21.0421 7.12181 20.5838 6.82226 20.1742H7.24243ZM18.3066 18.6742H18.1314C18.0764 18.3749 17.9957 18.0762 17.8882 17.7806C18.0029 18.0959 18.1435 18.3942 18.3066 18.6742ZM17.5818 16.4409C17.6265 16.8887 17.7272 17.3383 17.8882 17.7806C17.7102 17.2916 17.47 16.8431 17.1799 16.4409H17.5818ZM17.6397 14.9409H15.5422C14.171 14.1223 12.4564 13.9047 10.8387 14.4934C10.5049 14.6149 10.1901 14.7654 9.89588 14.9409H3.01707C3.41696 14.2617 3.67005 13.4996 3.75167 12.7076H5.21303C6.65901 13.8437 8.64159 14.229 10.4967 13.5537C11.0613 13.3483 11.5717 13.06 12.0194 12.7076H18.5768C18.1044 13.3718 17.783 14.1357 17.6397 14.9409ZM3.89366 11.2076H3.69899C3.64395 10.8924 3.56053 10.5777 3.44729 10.2665C3.56853 10.5996 3.7186 10.9139 3.89366 11.2076ZM3.14591 8.97424C3.19277 9.40636 3.29198 9.83982 3.44729 10.2665C3.27625 9.79662 3.04783 9.36417 2.77282 8.97424H3.14591ZM13.3366 11.2076C13.7414 10.5294 13.9993 9.76716 14.0852 8.97424H15.5868C17.0294 10.0879 18.994 10.461 20.8333 9.79152C21.3824 9.59169 21.8803 9.31352 22.319 8.97424H28.8931C28.4262 9.63967 28.11 10.4034 27.9713 11.2076H25.9266C24.5476 10.3652 22.8119 10.1356 21.1754 10.7312C20.8234 10.8593 20.4924 11.0196 20.1846 11.2076H13.3366ZM30.4745 7.47424H23.6558C24.0657 6.79703 24.3283 6.03472 24.4187 5.2409H25.9611C27.4002 6.33213 29.3466 6.69293 31.17 6.0293C31.7033 5.83516 32.1884 5.5671 32.6179 5.2409H39.2096C38.7482 5.90751 38.4371 6.67106 38.303 7.47424H36.31C34.9236 6.6083 33.1671 6.36658 31.512 6.96899C31.1421 7.10361 30.7955 7.27378 30.4745 7.47424ZM13.1297 5.2409H13.4858C13.5339 5.66345 13.6321 6.08711 13.7839 6.50432C13.6171 6.04597 13.3957 5.62328 13.1297 5.2409ZM13.7839 6.50432C13.9091 6.84837 14.0651 7.17234 14.2476 7.47424H14.0406C13.9856 7.14941 13.9006 6.82496 13.7839 6.50432ZM48.898 6.49396C48.7327 6.03975 48.5138 5.62055 48.251 5.2409H48.6011C48.6496 5.66002 48.7474 6.08016 48.898 6.49396ZM48.898 6.49396C49.0247 6.84195 49.1828 7.16939 49.368 7.47424H49.1564C49.1016 7.14595 49.016 6.81801 48.898 6.49396ZM58.7636 7.47424C59.1754 6.79739 59.4397 6.03504 59.5316 5.2409H61.089C62.5267 6.32405 64.4665 6.68046 66.2841 6.01894C66.8118 5.82686 67.2922 5.56242 67.7183 5.2409H74.9388C74.4215 5.88881 74.0715 6.65778 73.9229 7.47424H71.4407C70.0517 6.59988 68.2878 6.35383 66.6261 6.95863C66.2499 7.09556 65.8977 7.26928 65.5721 7.47424H58.7636ZM83.5423 6.65461C83.351 6.12895 83.0807 5.65487 82.7496 5.2409H84.4725C84.5176 5.57097 84.5983 5.9013 84.7169 6.22709C84.8841 6.68635 85.1147 7.10416 85.3953 7.47424H83.7647C83.7147 7.19971 83.641 6.92566 83.5423 6.65461ZM37.8942 8.97424H38.2612C38.3085 9.40293 38.4073 9.83288 38.5614 10.2562C38.3919 9.79042 38.166 9.36147 37.8942 8.97424ZM38.5614 10.2562C38.6841 10.5932 38.8362 10.911 39.014 11.2076H38.8149C38.7599 10.8889 38.6759 10.5707 38.5614 10.2562ZM27.5372 12.7076H27.9214C27.9674 13.1458 28.0672 13.5856 28.2248 14.0184C28.051 13.541 27.8181 13.1023 27.5372 12.7076ZM28.2248 14.0184C28.3435 14.3445 28.4898 14.6526 28.6602 14.9409H28.4732C28.4182 14.6319 28.3358 14.3234 28.2248 14.0184ZM63.5892 14.9409H63.7804C63.6074 14.6496 63.459 14.3381 63.3389 14.008C63.1826 13.5786 63.0831 13.1424 63.0366 12.7076H62.6586C62.9362 13.0996 63.1667 13.5348 63.3389 14.008C63.4512 14.3165 63.5341 14.6285 63.5892 14.9409ZM101.153 14.9409H97.6864C97.6433 14.7395 97.5857 14.5387 97.5133 14.3397C97.2828 13.7063 96.9248 13.1561 96.4789 12.7076H99.9175C99.9547 12.9392 100.014 13.1706 100.097 13.3992C100.322 14.0159 100.691 14.538 101.153 14.9409Z" fill="white" fill-opacity="0.08"/>
</svg>
