<svg width="20" height="22" viewBox="0 0 20 22" fill="none" xmlns="http://www.w3.org/2000/svg">
<path d="M19 14.9807V6.97638C18.9997 6.7144 18.9308 6.45707 18.8001 6.23C18.6694 6.00294 18.4815 5.81406 18.2552 5.68217L11.1302 1.53561C10.7869 1.33576 10.3968 1.23047 9.99953 1.23047C9.60231 1.23047 9.21219 1.33576 8.86891 1.53561L1.74484 5.68217C1.51848 5.81406 1.33061 6.00294 1.19993 6.23C1.06925 6.45707 1.00032 6.7144 1 6.97638V14.9807C1.00016 15.2429 1.06901 15.5004 1.1997 15.7277C1.33038 15.9549 1.51834 16.1439 1.74484 16.2759L8.86984 20.4225C9.21322 20.622 9.60331 20.7272 10.0005 20.7272C10.3976 20.7272 10.7877 20.622 11.1311 20.4225L18.2561 16.2759C18.4824 16.1438 18.6702 15.9547 18.8007 15.7275C18.9312 15.5003 18.9999 15.2428 19 14.9807Z" stroke="white" stroke-width="1.5" stroke-linecap="round" stroke-linejoin="round"/>
<path d="M1.23438 6.19727L10 11.3535M10 11.3535L18.7656 6.19727M10 11.3535V20.7285" stroke="white" stroke-width="1.5" stroke-linecap="round" stroke-linejoin="round"/>
<path d="M10 6.854C10.6213 6.854 11.125 6.51822 11.125 6.104C11.125 5.68979 10.6213 5.354 10 5.354C9.37868 5.354 8.875 5.68979 8.875 6.104C8.875 6.51822 9.37868 6.854 10 6.854Z" fill="white"/>
<path d="M7.05017 14.1792C7.46438 14.1792 7.80017 13.6755 7.80017 13.0542C7.80017 12.4329 7.46438 11.9292 7.05017 11.9292C6.63596 11.9292 6.30017 12.4329 6.30017 13.0542C6.30017 13.6755 6.63596 14.1792 7.05017 14.1792Z" fill="white"/>
<path d="M3.74988 15.479C4.16409 15.479 4.49988 14.9753 4.49988 14.354C4.49988 13.7327 4.16409 13.229 3.74988 13.229C3.33566 13.229 2.99988 13.7327 2.99988 14.354C2.99988 14.9753 3.33566 15.479 3.74988 15.479Z" fill="white"/>
<path d="M13.0498 14.0791C13.464 14.0791 13.7998 13.5754 13.7998 12.9541C13.7998 12.3328 13.464 11.8291 13.0498 11.8291C12.6356 11.8291 12.2998 12.3328 12.2998 12.9541C12.2998 13.5754 12.6356 14.0791 13.0498 14.0791Z" fill="white"/>
<path d="M16.2501 11.8545C16.6643 11.8545 17.0001 11.3508 17.0001 10.7295C17.0001 10.1082 16.6643 9.60449 16.2501 9.60449C15.8359 9.60449 15.5001 10.1082 15.5001 10.7295C15.5001 11.3508 15.8359 11.8545 16.2501 11.8545Z" fill="white"/>
<path d="M13.1498 17.5034C13.564 17.5034 13.8998 16.9997 13.8998 16.3784C13.8998 15.7571 13.564 15.2534 13.1498 15.2534C12.7356 15.2534 12.3998 15.7571 12.3998 16.3784C12.3998 16.9997 12.7356 17.5034 13.1498 17.5034Z" fill="white"/>
<path d="M16.4501 15.3789C16.8643 15.3789 17.2001 14.8752 17.2001 14.2539C17.2001 13.6326 16.8643 13.1289 16.4501 13.1289C16.0359 13.1289 15.7001 13.6326 15.7001 14.2539C15.7001 14.8752 16.0359 15.3789 16.4501 15.3789Z" fill="white"/>
</svg>
